#!OML:ASF E:/inclinewalkrobotboard/Project1/Captureday1/Session1/subject1.ASF
:FULLY-SPECIFIED
:DEGREES
238
root 0 0 0 -0.8733265132856665 0.922410052927586 1.8927135750459594
lowerback 9.038183583915746 -1.3632480627953099 -4.037513530681462
upperback 0.11694058483441513 -2.176667877606091 1.6280973203838456
thorax -4.7626361738433225 -0.9679449741964088 4.259778213201652
lowerneck -16.249290656342172 -2.917761049767504 -3.1984060588980086
upperneck 17.042681932919766 -3.493234512408598 1.8024225281136292
head 8.053316444980785 -1.7534101699536675 0.7122030755161508
rclavicle 1.780516649678994E-15 1.0308950445702544E-15
rhumerus -33.034915304651506 -26.531554696839688 -79.4873513446911
rradius 20.647973542710226
rwrist 10.749245618525272
rhand -19.40392603079851 24.727461256124137
rfingers 7.125020000000007
rthumb 6.938343871876202 -5.3109488666468465
lclavicle 6.696733930016177E-15 2.107177945838531E-15
lhumerus -26.43309583285664 -4.903572287576956 82.67158413281769
lradius 31.99982917393398
lwrist 8.468634889612067
lhand -28.38031200418409 24.889071381793862
lfingers 7.125020000000021
lthumb -1.778666018552416 54.855651612512325
rfemur -27.42471340270098 5.341252287819808 22.131776863137723
rtibia 30.081684087286018
rfoot -9.2291729643099 -11.038198495318678
rtoes -0.2987590648083185
lfemur 12.518582471943603 -6.311586918986497 -27.21772191382406
ltibia 19.20306825280592
lfoot -13.767024811420487 -1.9231105224517457
ltoes -6.01897895482843
239
root 0 0 0 -1.3702014809225511 0.9371906584473129 1.1292239790545513
lowerback 8.031771538895132 -1.4625748167178436 -3.3512121291059698
upperback -0.29868273767916864 -2.198348645764324 1.9300867731261926
thorax -4.665987109549665 -0.9917905032702514 4.209510616967867
lowerneck -17.169792305329736 -2.84537173325866 -3.1075509250008686
upperneck 18.758456160597824 -3.380420570119433 1.290115550177004
head 8.737866696227307 -1.7095901916108274 0.5150595025043287
rclavicle 2.0284406652809695E-15 8.598745338822997E-16
rhumerus -33.5635482961174 -27.324436050901888 -79.21499826070838
rradius 19.506263301058922
rwrist 10.01727335672944
rhand -19.16204044802323 24.43513089168491
rfingers 7.12502000000001
rthumb 7.1715802939962225 -5.572652423696823
lclavicle 6.504131612650843E-15 2.018031298865813E-15
lhumerus -26.715054646325825 -4.562088148183599 82.70564189284322
lradius 31.62426525986426
lwrist 8.327151635381611
lhand -28.379361151566023 25.088724182953012
lfingers 7.125020000000023
lthumb -1.77144260309481 55.06339689345518
rfemur -25.529961979435317 5.565949887717141 22.972112751802882
rtibia 29.63655466619297
rfoot -9.442571345315397 -10.275748298216659
rtoes 0.5917752867423167
lfemur 12.775038272375724 -5.942955955731609 -26.269375870809668
ltibia 22.79681478122066
lfoot -12.052787070984438 -3.2970796197286902
ltoes -8.552273317452123
240
root 0 0 0 -2.154304067474812 0.6840545050452169 0.40818087638188594
lowerback 8.214811946830219 -1.4994039921507727 -2.5221969005190132
upperback -0.11841439728977302 -2.134834769013639 2.2103375017604536
thorax -4.597041489904356 -0.9737714512992122 4.043222081780901
lowerneck -17.23214145500301 -2.718992479237385 -2.846982156060567
upperneck 20.020136220425158 -3.1613859586150324 0.6694391151309123
head 9.079623969215188 -1.6321087769775084 0.270475112670621
rclavicle 1.4609816563023506E-15 6.910860000068186E-16
rhumerus -34.001533431667255 -27.643942905561072 -79.17116210941508
rradius 18.623692036486517
rwrist 9.585914720378682
rhand -18.913254689336434 24.225868486064396
rfingers 7.125020000000013
rthumb 7.411671156098641 -5.740453328589645
lclavicle 5.049953809071E-15 1.812245876583069E-15
lhumerus -27.19294665512882 -4.168221230626115 82.89795875046073
lradius 31.16716638407714
lwrist 8.149004623403634
lhand -28.316472622311366 25.283227031236247
lfingers 7.125020000000027
lthumb -1.704523460728483 55.26896397046038
rfemur -22.652304798152585 5.79322513436235 24.346828866128384
rtibia 30.055453633174604
rfoot -9.79739383338399 -9.269526771625118
rtoes 1.9778260113956978
lfemur 11.336982455291494 -5.135743735644075 -24.794153998125452
ltibia 29.748012556634375
lfoot -8.669187979686125 -5.697034402280975
ltoes -9.715353517911723
241
root 0 0 0 -2.999246181214956 0.2884407393814108 -0.5981053135721037
lowerback 10.12607386324266 -1.5757088971543065 -1.441555937005033
upperback 0.4096421746086364 -2.0848306943890824 2.5223712389065414
thorax -5.133871318926271 -0.9745272489771619 3.744739793731539
lowerneck -17.542922228497215 -2.7629832739769085 -2.5050589765584923
upperneck 17.512038188124883 -3.0500108836822175 -0.12131509149133479
head 8.244944104694126 -1.6617374257258795 -0.026668166503498847
rclavicle 4.585875822306018E-16 2.8700689760813653E-16
rhumerus -34.08790370327944 -27.487669035175823 -79.24081530894203
rradius 18.123322051529556
rwrist 9.688362861427997
rhand -18.67632570467832 24.2427246786664
rfingers 7.125020000000014
rthumb 7.638833011379748 -5.690348375280728
lclavicle 2.8643002521897974E-15 1.2304457352485755E-15
lhumerus -27.710900192402363 -3.7580371597989544 83.28536634524094
lradius 30.573990697843023
lwrist 7.91370988054058
lhand -28.22376288257356 25.46801849694855
lfingers 7.125020000000032
lthumb -1.6086206408613783 55.46656633184584
rfemur -17.4462990033665 6.342660053759385 27.329024221622532
rtibia 31.831308856216722
rfoot -10.429523546566383 -7.8115327938850925
rtoes 4.3040238976035
lfemur 3.2854411446954925 -3.239890092743614 -21.403031226503646
ltibia 44.30573721930414
lfoot 1.0436375349125697 -11.397689149767047
ltoes -3.462006433485133
